<mxfile host="app.diagrams.net" modified="2023-05-25T07:20:01.561Z" agent="Mozilla/5.0 (Macintosh; Intel Mac OS X 10_15_7) AppleWebKit/605.1.15 (KHTML, like Gecko) Version/16.1 Safari/605.1.15" etag="CXJCepLju8ysLsFsX1RD" version="21.3.2" type="github">
  <diagram name="第 1 页" id="W89u3-bwfvntUsv9YNas">
    <mxGraphModel dx="1072" dy="641" grid="1" gridSize="10" guides="1" tooltips="1" connect="1" arrows="1" fold="1" page="1" pageScale="1" pageWidth="827" pageHeight="1169" math="0" shadow="0">
      <root>
        <mxCell id="0" />
        <mxCell id="1" parent="0" />
        <mxCell id="Ep2zDWD1IR-FgS8I4Gc9-9" style="edgeStyle=orthogonalEdgeStyle;shape=connector;rounded=0;orthogonalLoop=1;jettySize=auto;html=1;entryX=0;entryY=0.5;entryDx=0;entryDy=0;labelBackgroundColor=default;strokeColor=default;strokeWidth=2;fontFamily=Helvetica;fontSize=11;fontColor=default;endArrow=classic;" parent="1" source="Ep2zDWD1IR-FgS8I4Gc9-3" target="Ep2zDWD1IR-FgS8I4Gc9-4" edge="1">
          <mxGeometry relative="1" as="geometry" />
        </mxCell>
        <mxCell id="Ep2zDWD1IR-FgS8I4Gc9-10" value="&lt;font face=&quot;Tahoma&quot;&gt;&lt;span style=&quot;font-size: 14px;&quot;&gt;COM_BUS_CREATE&lt;/span&gt;&lt;/font&gt;" style="edgeLabel;html=1;align=center;verticalAlign=middle;resizable=0;points=[];fontSize=11;fontFamily=Helvetica;fontColor=default;" parent="Ep2zDWD1IR-FgS8I4Gc9-9" vertex="1" connectable="0">
          <mxGeometry x="0.058" y="2" relative="1" as="geometry">
            <mxPoint x="-5" y="-13" as="offset" />
          </mxGeometry>
        </mxCell>
        <mxCell id="Ep2zDWD1IR-FgS8I4Gc9-3" value="&lt;font style=&quot;font-size: 21px;&quot; face=&quot;Tahoma&quot;&gt;OFF&amp;nbsp;&lt;/font&gt;" style="rounded=1;whiteSpace=wrap;html=1;strokeWidth=2;" parent="1" vertex="1">
          <mxGeometry x="190" y="200" width="120" height="60" as="geometry" />
        </mxCell>
        <mxCell id="Ep2zDWD1IR-FgS8I4Gc9-12" style="edgeStyle=orthogonalEdgeStyle;shape=connector;rounded=0;orthogonalLoop=1;jettySize=auto;html=1;entryX=0.5;entryY=0;entryDx=0;entryDy=0;labelBackgroundColor=default;strokeColor=default;strokeWidth=2;fontFamily=Helvetica;fontSize=11;fontColor=default;endArrow=classic;" parent="1" source="Ep2zDWD1IR-FgS8I4Gc9-4" target="Ep2zDWD1IR-FgS8I4Gc9-11" edge="1">
          <mxGeometry relative="1" as="geometry" />
        </mxCell>
        <mxCell id="Ep2zDWD1IR-FgS8I4Gc9-26" value="&lt;font style=&quot;font-size: 14px;&quot; face=&quot;Tahoma&quot;&gt;COM_BUS_CONNECT&lt;/font&gt;" style="edgeLabel;html=1;align=center;verticalAlign=middle;resizable=0;points=[];fontSize=11;fontFamily=Helvetica;fontColor=default;" parent="Ep2zDWD1IR-FgS8I4Gc9-12" vertex="1" connectable="0">
          <mxGeometry x="-0.0428" relative="1" as="geometry">
            <mxPoint x="75" y="-7" as="offset" />
          </mxGeometry>
        </mxCell>
        <mxCell id="Ep2zDWD1IR-FgS8I4Gc9-4" value="&lt;font style=&quot;font-size: 22px;&quot; face=&quot;Tahoma&quot;&gt;SB_UNCONNECTED&lt;/font&gt;" style="rounded=1;whiteSpace=wrap;html=1;strokeWidth=2;" parent="1" vertex="1">
          <mxGeometry x="462" y="200" width="226" height="60" as="geometry" />
        </mxCell>
        <mxCell id="Ep2zDWD1IR-FgS8I4Gc9-6" style="edgeStyle=orthogonalEdgeStyle;rounded=0;orthogonalLoop=1;jettySize=auto;html=1;entryX=0;entryY=0.5;entryDx=0;entryDy=0;strokeWidth=2;" parent="1" source="Ep2zDWD1IR-FgS8I4Gc9-5" target="Ep2zDWD1IR-FgS8I4Gc9-3" edge="1">
          <mxGeometry relative="1" as="geometry" />
        </mxCell>
        <mxCell id="Ep2zDWD1IR-FgS8I4Gc9-5" value="" style="ellipse;fillColor=strokeColor;html=1;" parent="1" vertex="1">
          <mxGeometry x="120" y="215" width="30" height="30" as="geometry" />
        </mxCell>
        <mxCell id="Ep2zDWD1IR-FgS8I4Gc9-17" style="edgeStyle=orthogonalEdgeStyle;shape=connector;rounded=0;orthogonalLoop=1;jettySize=auto;html=1;entryX=0;entryY=0.5;entryDx=0;entryDy=0;labelBackgroundColor=default;strokeColor=default;strokeWidth=2;fontFamily=Helvetica;fontSize=11;fontColor=default;endArrow=classic;" parent="1" source="Ep2zDWD1IR-FgS8I4Gc9-11" target="Ep2zDWD1IR-FgS8I4Gc9-16" edge="1">
          <mxGeometry relative="1" as="geometry" />
        </mxCell>
        <mxCell id="Ep2zDWD1IR-FgS8I4Gc9-27" value="&lt;font face=&quot;Tahoma&quot; style=&quot;font-size: 14px;&quot;&gt;SIG_READ&lt;/font&gt;" style="edgeLabel;html=1;align=center;verticalAlign=middle;resizable=0;points=[];fontSize=11;fontFamily=Helvetica;fontColor=default;" parent="Ep2zDWD1IR-FgS8I4Gc9-17" vertex="1" connectable="0">
          <mxGeometry x="0.3437" y="2" relative="1" as="geometry">
            <mxPoint x="-17" y="-8" as="offset" />
          </mxGeometry>
        </mxCell>
        <mxCell id="Ep2zDWD1IR-FgS8I4Gc9-22" style="edgeStyle=orthogonalEdgeStyle;shape=connector;rounded=0;orthogonalLoop=1;jettySize=auto;html=1;entryX=0.5;entryY=0;entryDx=0;entryDy=0;labelBackgroundColor=default;strokeColor=default;strokeWidth=2;fontFamily=Helvetica;fontSize=11;fontColor=default;endArrow=classic;" parent="1" source="Ep2zDWD1IR-FgS8I4Gc9-11" target="Ep2zDWD1IR-FgS8I4Gc9-21" edge="1">
          <mxGeometry relative="1" as="geometry" />
        </mxCell>
        <mxCell id="Ep2zDWD1IR-FgS8I4Gc9-24" value="&lt;font face=&quot;Tahoma&quot; style=&quot;font-size: 14px;&quot;&gt;SIG_WRITE&lt;/font&gt;" style="edgeLabel;html=1;align=center;verticalAlign=middle;resizable=0;points=[];fontSize=11;fontFamily=Helvetica;fontColor=default;" parent="Ep2zDWD1IR-FgS8I4Gc9-22" vertex="1" connectable="0">
          <mxGeometry x="-0.0266" y="-2" relative="1" as="geometry">
            <mxPoint x="47" as="offset" />
          </mxGeometry>
        </mxCell>
        <mxCell id="Ep2zDWD1IR-FgS8I4Gc9-29" style="edgeStyle=orthogonalEdgeStyle;shape=connector;rounded=0;orthogonalLoop=1;jettySize=auto;html=1;labelBackgroundColor=default;strokeColor=default;strokeWidth=2;fontFamily=Helvetica;fontSize=11;fontColor=default;endArrow=classic;" parent="1" source="Ep2zDWD1IR-FgS8I4Gc9-11" target="Ep2zDWD1IR-FgS8I4Gc9-3" edge="1">
          <mxGeometry relative="1" as="geometry" />
        </mxCell>
        <mxCell id="Ep2zDWD1IR-FgS8I4Gc9-30" value="&lt;font face=&quot;Tahoma&quot; style=&quot;font-size: 14px;&quot;&gt;COM_BUS_OFF&lt;/font&gt;" style="edgeLabel;html=1;align=center;verticalAlign=middle;resizable=0;points=[];fontSize=11;fontFamily=Helvetica;fontColor=default;" parent="Ep2zDWD1IR-FgS8I4Gc9-29" vertex="1" connectable="0">
          <mxGeometry x="-0.0231" y="-2" relative="1" as="geometry">
            <mxPoint x="50" y="-18" as="offset" />
          </mxGeometry>
        </mxCell>
        <mxCell id="Ep2zDWD1IR-FgS8I4Gc9-11" value="&lt;font style=&quot;font-size: 22px;&quot; face=&quot;Tahoma&quot;&gt;SB_CONNECTED&lt;/font&gt;" style="rounded=1;whiteSpace=wrap;html=1;strokeWidth=2;" parent="1" vertex="1">
          <mxGeometry x="470" y="400" width="209" height="60" as="geometry" />
        </mxCell>
        <mxCell id="Ep2zDWD1IR-FgS8I4Gc9-20" style="edgeStyle=orthogonalEdgeStyle;shape=connector;rounded=0;orthogonalLoop=1;jettySize=auto;html=1;exitX=0;exitY=0.75;exitDx=0;exitDy=0;entryX=1;entryY=0.75;entryDx=0;entryDy=0;labelBackgroundColor=default;strokeColor=default;strokeWidth=2;fontFamily=Helvetica;fontSize=11;fontColor=default;endArrow=classic;" parent="1" source="Ep2zDWD1IR-FgS8I4Gc9-16" target="Ep2zDWD1IR-FgS8I4Gc9-11" edge="1">
          <mxGeometry relative="1" as="geometry" />
        </mxCell>
        <mxCell id="Ep2zDWD1IR-FgS8I4Gc9-16" value="&lt;font style=&quot;font-size: 22px;&quot; face=&quot;Tahoma&quot;&gt;SB_DOWNLOADING&lt;/font&gt;" style="rounded=1;whiteSpace=wrap;html=1;strokeWidth=2;" parent="1" vertex="1">
          <mxGeometry x="810" y="400" width="208" height="60" as="geometry" />
        </mxCell>
        <mxCell id="Ep2zDWD1IR-FgS8I4Gc9-23" style="edgeStyle=orthogonalEdgeStyle;shape=connector;rounded=0;orthogonalLoop=1;jettySize=auto;html=1;exitX=0.25;exitY=0;exitDx=0;exitDy=0;entryX=0.25;entryY=1;entryDx=0;entryDy=0;labelBackgroundColor=default;strokeColor=default;strokeWidth=2;fontFamily=Helvetica;fontSize=11;fontColor=default;endArrow=classic;" parent="1" source="Ep2zDWD1IR-FgS8I4Gc9-21" target="Ep2zDWD1IR-FgS8I4Gc9-11" edge="1">
          <mxGeometry relative="1" as="geometry" />
        </mxCell>
        <mxCell id="Ep2zDWD1IR-FgS8I4Gc9-21" value="&lt;font style=&quot;font-size: 22px;&quot; face=&quot;Tahoma&quot;&gt;IB_UPLOADING&lt;/font&gt;" style="rounded=1;whiteSpace=wrap;html=1;strokeWidth=2;" parent="1" vertex="1">
          <mxGeometry x="470" y="610" width="209" height="60" as="geometry" />
        </mxCell>
      </root>
    </mxGraphModel>
  </diagram>
</mxfile>
